<?xml version="1.0" encoding="utf-8"?>
<!-- Generator: Adobe Illustrator 19.1.0, SVG Export Plug-In . SVG Version: 6.00 Build 0)  -->
<!DOCTYPE svg PUBLIC "-//W3C//DTD SVG 1.1//EN" "http://www.w3.org/Graphics/SVG/1.1/DTD/svg11.dtd">
<svg version="1.1" id="Layer_1" xmlns="http://www.w3.org/2000/svg" xmlns:xlink="http://www.w3.org/1999/xlink" x="0px" y="0px"
	 viewBox="0 0 100 100" enable-background="new 0 0 100 100" xml:space="preserve">
<g>
	<path fill="#FFFFFF" d="M89.13831,97.55504H10.4409c-1.1,0-2-0.9-2-2V4.29042c0-1.1,0.9-2,2-2h78.6974c1.1,0,2,0.9,2,2v91.26462
		C91.13831,96.65504,90.2383,97.55504,89.13831,97.55504z"/>
	<path d="M88.08335,99.84631H11.49559c-2.9474,0-5.3459-2.39849-5.3459-5.3459V5.3459C6.14969,2.3985,8.54818,0,11.49559,0h76.58776
		c2.9474,0,5.3459,2.39849,5.3459,5.3459v89.1545C93.42925,97.44781,91.03075,99.84631,88.08335,99.84631z M11.49559,4.5822
		c-0.41392,0-0.7637,0.34903-0.7637,0.7637v89.1545c0,0.41467,0.34978,0.7637,0.7637,0.7637h76.58776
		c0.41393,0,0.7637-0.34904,0.7637-0.7637V5.3459c0-0.41467-0.34978-0.7637-0.7637-0.7637H11.49559z"/>
</g>
<g>
	<g>
		<path d="M79.78036,21.11063H19.79859c-1.26562,0-2.2911-1.02622-2.2911-2.2911c0-1.26488,1.02548-2.2911,2.2911-2.2911h59.98177
			c1.26562,0,2.2911,1.02622,2.2911,2.2911C82.07146,20.08441,81.04597,21.11063,79.78036,21.11063z"/>
	</g>
	<g>
		<path d="M79.78036,36.66505H19.79859c-1.26562,0-2.2911-1.02622-2.2911-2.2911s1.02548-2.2911,2.2911-2.2911h59.98177
			c1.26562,0,2.2911,1.02622,2.2911,2.2911S81.04597,36.66505,79.78036,36.66505z"/>
	</g>
	<g>
		<path d="M79.78036,52.215H19.79859c-1.26562,0-2.2911-1.02622-2.2911-2.2911c0-1.26488,1.02548-2.2911,2.2911-2.2911h59.98177
			c1.26562,0,2.2911,1.02622,2.2911,2.2911C82.07146,51.18878,81.04597,52.215,79.78036,52.215z"/>
	</g>
	<g>
		<path d="M79.78036,67.76196H19.79859c-1.26562,0-2.2911-1.02622-2.2911-2.2911s1.02548-2.2911,2.2911-2.2911h59.98177
			c1.26562,0,2.2911,1.02623,2.2911,2.2911S81.04597,67.76196,79.78036,67.76196z"/>
	</g>
	<g>
		<path d="M79.78036,83.31638H19.79859c-1.26562,0-2.2911-1.02622-2.2911-2.29111c0-1.26488,1.02548-2.2911,2.2911-2.2911h59.98177
			c1.26562,0,2.2911,1.02622,2.2911,2.2911C82.07146,82.29016,81.04597,83.31638,79.78036,83.31638z"/>
	</g>
</g>
<g>
	<path fill="#FF0000" d="M74.61874,49.91819c0,13.65729-11.11776,24.72725-24.83001,24.72725S24.96047,63.57548,24.96047,49.91819
		c0-13.65004,11.11601-24.71818,24.82826-24.71818S74.61874,36.26815,74.61874,49.91819"/>
	<path fill="#FFFFFF" d="M49.78872,76.1731c-14.53267,0-26.35585-11.77769-26.35585-26.25517
		c0-14.47152,11.82318-26.24473,26.35585-26.24473c14.53342,0,26.35734,11.77321,26.35734,26.24473
		C76.14606,64.39542,64.32214,76.1731,49.78872,76.1731z M49.78872,26.72801c-12.84791,0-23.30105,10.40243-23.30105,23.18993
		c0,12.79346,10.45314,23.20037,23.30105,23.20037c12.8494,0,23.30255-10.4069,23.30255-23.20037
		C73.09127,37.13043,62.63813,26.72801,49.78872,26.72801z"/>
</g>
<g>
	<line fill="#FE0000" x1="41.11602" y1="40.97931" x2="58.46266" y2="58.86614"/>
	<path fill="#FFFFFF" d="M58.46276,61.92085c-0.79726,0-1.59378-0.31025-2.19265-0.92778L38.92353,43.10579
		c-1.17464-1.21118-1.1448-3.14579,0.06563-4.31968c1.21043-1.17389,3.14429-1.14555,4.31968,0.06563l17.34658,17.88728
		c1.17464,1.21118,1.1448,3.14579-0.06563,4.31968C59.99612,61.63446,59.22944,61.92085,58.46276,61.92085z"/>
</g>
<g>
	<line fill="#FE0000" x1="58.46266" y1="40.97931" x2="41.11602" y2="58.86614"/>
	<path fill="#FFFFFF" d="M41.11618,61.92085c-0.76668,0-1.53337-0.28639-2.12702-0.86214
		c-1.21043-1.17389-1.24027-3.1085-0.06563-4.31968l17.34658-17.88728c1.17389-1.21267,3.10849-1.24101,4.31968-0.06563
		c1.21043,1.17389,1.24027,3.1085,0.06563,4.31968L43.30883,60.99307C42.70996,61.6106,41.91344,61.92085,41.11618,61.92085z"/>
</g>
</svg>
